inDegrees=no
num_controls=7
num_derivatives=13
num_iterations=82
num_multipliers=7
num_parameters=0
num_slacks=7
num_states=26
objective=0.497591
objective_accelerations=0.002689
objective_balance=0.001079
objective_effort=0.004761
objective_height=0.481607
objective_ligament=0.007455
solver_duration=1141.896404
status=Solve_Succeeded
success=true
DataType=double
version=3
OpenSimVersion=4.5
endheader
time	/jointset/ground_pelvis/pelvis_tilt/value	/jointset/ground_pelvis/pelvis_tx/value	/jointset/ground_pelvis/pelvis_ty/value	/jointset/hip_l/hip_flexion_l/value	/jointset/hip_l/hip_adduction_l/value	/jointset/hip_l/hip_rotation_l/value	/jointset/back/lumbar_extension/value	/jointset/patellofemoral_l/patellar_flexion_l/value	/jointset/knee_l/knee_flexion_l/value	/jointset/knee_l/knee_adduction_l/value	/jointset/knee_l/knee_rotation_l/value	/jointset/ankle_l/ankle_angle_l/value	/jointset/subtalar_l/subtalar_angle_l/value	/jointset/ground_pelvis/pelvis_tilt/speed	/jointset/ground_pelvis/pelvis_tx/speed	/jointset/ground_pelvis/pelvis_ty/speed	/jointset/hip_l/hip_flexion_l/speed	/jointset/hip_l/hip_adduction_l/speed	/jointset/hip_l/hip_rotation_l/speed	/jointset/back/lumbar_extension/speed	/jointset/patellofemoral_l/patellar_flexion_l/speed	/jointset/knee_l/knee_flexion_l/speed	/jointset/knee_l/knee_adduction_l/speed	/jointset/knee_l/knee_rotation_l/speed	/jointset/ankle_l/ankle_angle_l/speed	/jointset/subtalar_l/subtalar_angle_l/speed	/forceset/tau_hip_flexion_l	/forceset/tau_hip_adduction_l	/forceset/tau_hip_rotation_l	/forceset/tau_knee_flexion_l	/forceset/tau_ankle_angle_l	/forceset/tau_subtalar_angle_l	/forceset/tau_lumbar_extension	lambda_cid13_p0	lambda_cid13_p1	lambda_cid13_p2	lambda_cid13_p3	lambda_cid13_p4	lambda_cid13_p5	lambda_cid14_p0	/jointset/ground_pelvis/pelvis_tilt/accel	/jointset/ground_pelvis/pelvis_tx/accel	/jointset/ground_pelvis/pelvis_ty/accel	/jointset/hip_l/hip_flexion_l/accel	/jointset/hip_l/hip_adduction_l/accel	/jointset/hip_l/hip_rotation_l/accel	/jointset/back/lumbar_extension/accel	/jointset/patellofemoral_l/patellar_flexion_l/accel	/jointset/knee_l/knee_flexion_l/accel	/jointset/knee_l/knee_adduction_l/accel	/jointset/knee_l/knee_rotation_l/accel	/jointset/ankle_l/ankle_angle_l/accel	/jointset/subtalar_l/subtalar_angle_l/accel	gamma_cid13_p0	gamma_cid13_p1	gamma_cid13_p2	gamma_cid13_p3	gamma_cid13_p4	gamma_cid13_p5	gamma_cid14_p0
0.5	0.05180927819579251	0.1098026457878604	0.9101107070401611	0.1274574154095686	-0.2808154899921392	-0.2888692840756176	-0.1985103475815624	0.1840950892369729	0.1840950892369711	0.006719958823098321	-0.1713574684195125	0.1043511038439249	0.183677163650049	-0.1185491488535347	0.06357266555058791	-0.001312241164690106	0.006807701463216791	0.02508852249686285	-0.03308495594476016	0.06768277126411511	-0.08411786062708627	-0.08411786062708707	0.02885088152131452	0.01204526798437441	0.0348765479433434	0.04264252406992294	0.05036029548124539	0.04197329874564356	-0.003246125257773313	-0.1421169611518595	0.07976801965695322	-0.06558391459323554	0.006910545298186358	-6.908566485816223	28.8831045741137	-3.960976010537808	-0.7457953446564305	-461.6758291638345	-27.23788188643874	-25.50094598569132	-0.130222406686365	0.02177792959148368	-0.00338493380952568	0.03303552445154785	0.05366091187092852	-0.03835132264282289	0.1607708290826747	-0.1679270132309978	-0.1679270132309975	0.05505346309629516	0.02882982456679185	-0.05767294413095014	0.04159230588488685	-1.095838439621803e-09	2.763009037009274e-09	-1.417638551731014e-09	1.187375172532983e-09	-2.005296672877904e-09	3.517973250370841e-09	2.823512677619648e-11
0.51	0.05061730931636391	0.1104394024398742	0.9100974068244203	0.127527249929452	-0.280561932316295	-0.2892020539499472	-0.1978253985540759	0.1832456305849013	0.1832456305848991	0.007011234112425815	-0.1712356245985055	0.104696968783184	0.184105649864308	-0.1198374661867304	0.06377313225413023	-0.001347636684667532	0.007158295505906145	0.02562288943588782	-0.03346803398021553	0.06931176405162583	-0.08577413603736049	-0.08577413603736056	0.02940325941539524	0.01232286834919027	0.03428970907472133	0.0430519074943178	0.0498164128682478	0.04241675967057552	-0.003287425258048063	-0.140677019883017	0.07804854840513378	-0.0654390298033066	0.007192151389572046	-7.444476857172764	28.83940880324985	-3.868791317133502	-0.5548652517098407	-461.6563730439183	-27.16509954455087	-25.49233124630503	-0.1270622797932978	0.01835139267473333	-0.003592472206958452	0.03593523626243856	0.05330626164417215	-0.03813802324337681	0.164672976352991	-0.1645177468121665	-0.1645177468120627	0.05519257424378716	0.02713068803041787	-0.06019907248197873	0.04018942141645651	-1.16455334151565e-09	2.881970276570365e-09	-1.412617979568376e-09	1.223494743299675e-09	-2.03948527466644e-09	3.563424126256923e-09	1.646409289622928e-11
0.52	0.04941267208697193	0.1110779978293112	0.9100837575312566	0.1276005631681792	-0.2803030346357153	-0.2895386250004807	-0.1971240177041607	0.1823796011903495	0.1823796011903473	0.007308005705030134	-0.171111023664732	0.105036763390906	0.184538145524951	-0.121082818846209	0.06394041303523716	-0.001382056649249204	0.007503445231987897	0.02615652344394844	-0.0338451911855302	0.07096913574984465	-0.087432009123096	-0.0874320091230954	0.02995014217666921	0.01259669053766353	0.03366248163593395	0.0434444133466995	0.0492725302552497	0.04286022059550727	-0.0033287252583222	-0.1392370786141748	0.07632907715331411	-0.06529414501337798	0.007473757480957488	-7.981278649640607	28.79544126293575	-3.776074586791383	-0.361756054898469	-461.6517054294286	-27.09594060425796	-25.48344872875751	-0.1216294719429421	0.01514074510440372	-0.003189822730374871	0.03194666113002763	0.05351432567805949	-0.03716715661468052	0.1664466112242985	-0.1682465483232505	-0.1682465483232504	0.0539544365349531	0.02807418929827357	-0.06575065816397022	0.03821679148225372	-1.226128293469028e-09	2.998706685475951e-09	-1.40965796724227e-09	1.25431929187538e-09	-2.059293961119151e-09	3.616179457912303e-09	5.581808360086027e-12
0.53	0.0481958099290342	0.1117181003106608	0.9100697681703618	0.1276773072995115	-0.2800387994626997	-0.2898789894163494	-0.1964059482467906	0.1814970183308909	0.18149701833089	0.007610244711201935	-0.1709837592485607	0.1053701052766244	0.1849744962070771	-0.1222811146952828	0.06407456589902777	-0.001415732139025213	0.00784523629937529	0.02669089937663483	-0.03423116696757206	0.07264686028586827	-0.08908142441616917	-0.08908142441616922	0.03049936944910089	0.01285065051369278	0.03300133479927474	0.04382438113412186	0.04873551618970697	0.04329442257700443	-0.003371094754868848	-0.1377984053687452	0.07462994289346961	-0.06514762099145324	0.007745761120585124	-8.510035837031717	28.74995876872994	-3.683807979872876	-0.1783299558934379	-461.6265436080395	-27.02750297395958	-25.47429612879378	-0.117654960614243	0.01172521076618987	-0.00344431743417915	0.03527354473709993	0.05345759580105959	-0.03983374677394814	0.1687510590444769	-0.1628182668998373	-0.1628182668999333	0.0556636315669836	0.02322529222112082	-0.06698090484062957	0.03768519970385795	-1.300870075163729e-09	3.129704004521703e-09	-1.38895138731956e-09	1.286530989946693e-09	-2.083900393380137e-09	3.6637715106429e-09	-1.073697686449898e-11
0.54	0.0469672197487608	0.1123593788513983	0.9100554444735024	0.1277574649845566	-0.2797692088566097	-0.2902233177815936	-0.1956710384072095	0.1805980354690813	0.180598035469082	0.007918027341892047	-0.1708541215545359	0.1056966988522915	0.1854146062525438	-0.1234284233133422	0.06417562491280898	-0.001448923842119946	0.008186155974526313	0.0272276100588065	-0.03463798106061429	0.07433721219201674	-0.09071200959326177	-0.09071200959326246	0.03105886708032092	0.01307134610835682	0.03231281962566566	0.04419628601480945	0.04819850212416374	0.04372862455850138	-0.003413464251415089	-0.1363597321233159	0.07293080863362499	-0.06500109696952878	0.008017764760212515	-9.039680259223523	28.70417047671532	-3.590965879984429	0.007543526989858176	-461.6160980401195	-26.96273647282548	-25.46487919875942	-0.1114320257400466	0.008521975102519728	-0.003093065394119752	0.03177238268309566	0.05398127557511849	-0.04133481881475111	0.1689720852492728	-0.1644805251271347	-0.1644805251271337	0.05600850829262355	0.02142131302523004	-0.07122432555399769	0.0366042101352963	-1.39017941316798e-09	3.276479351807641e-09	-1.348610307077201e-09	1.32027740660889e-09	-2.11381496993964e-09	3.705650999456714e-09	-3.307061391459408e-11
0.55	0.04572740945857987	0.1130015084907245	0.9100407920280116	0.1278410080804592	-0.2794942563805687	-0.2905717576479063	-0.1949191507340977	0.1796828275314603	0.1796828275314614	0.008231411250881686	-0.1707223872594765	0.1060162654097601	0.1858583728699498	-0.1245254039927949	0.06424537683302325	-0.001481424036726699	0.008520543449077055	0.02776161211619127	-0.03504682786978892	0.0760436562717753	-0.09232762875372244	-0.09232762875372282	0.03161520588411498	0.01327610221367272	0.03159547552564984	0.04455351664545527	0.04766626584865699	0.04415275634376665	-0.003455615327363036	-0.1349282208257251	0.07126049015582828	-0.06485547057282652	0.008285103039422825	-9.559235782898039	28.65795656007336	-3.499142230664027	0.1816942602020038	-461.5937400659939	-26.89803004167022	-25.45520219908072	-0.1075965325147163	0.005463150303556329	-0.003307739622869675	0.03398386295395614	0.05291880911677302	-0.04018467203568554	0.1719806455543373	-0.1598102258679643	-0.1598102258679309	0.05504049935889384	0.02009087476701809	-0.07274202639750497	0.03475403320754339	-1.448215661764746e-09	3.377693046770274e-09	-1.340972397531278e-09	1.343391997062671e-09	-2.147881212767697e-09	3.734777657443067e-09	-4.398170977999442e-11
